<svg width="238" height="79" viewBox="0 0 238 79" fill="none" xmlns="http://www.w3.org/2000/svg">
<g clip-path="url(#clip0_11_3929)">
<path d="M106.03 42.8782H116.885L119.105 50.473H125.077L114.892 18.9153H108.556L97.975 50.4811H103.762L106.022 42.8862L106.03 42.8782ZM111.591 23.7014H111.68L115.659 38.4472H107.249L111.591 23.7014Z" fill="#3F3B3A"/>
<path d="M138.274 41.2559V18.9153H132.487V41.2075C132.487 43.6933 131.72 45.7757 128.911 45.7757C127.693 45.7757 126.926 45.4609 126.24 45.1865V50.1582C127.281 50.6102 129.04 50.925 130.396 50.925C134.601 50.925 138.266 48.1162 138.266 41.2478L138.274 41.2559Z" fill="#3F3B3A"/>
<path d="M169.775 41.2236C169.775 41.4173 169.831 41.6191 169.985 41.7643C170.138 41.9016 170.34 41.95 170.533 41.95H173.479C173.665 41.95 173.851 41.8693 173.988 41.7401C174.133 41.611 174.238 41.4254 174.238 41.2236V18.8265C174.238 18.6247 174.133 18.431 173.988 18.3099C173.851 18.1808 173.665 18.1001 173.471 18.1001H170.558C170.348 18.1001 170.146 18.1405 169.985 18.2777C169.823 18.4149 169.759 18.6247 169.759 18.8265V41.2155L169.775 41.2236Z" fill="#3F3B3A"/>
<path d="M152.164 38.3745C153.173 38.3423 154.198 38.2777 155.223 38.1889C156.256 38.1001 157.257 37.9791 158.233 37.8257C159.21 37.6804 160.082 37.5109 160.84 37.3253H160.872C161.082 37.2365 161.26 37.1316 161.397 36.9944C161.518 36.8814 161.591 36.7038 161.583 36.5424C161.583 36.4779 161.575 36.4133 161.559 36.3568L161.22 34.5085C161.187 34.3229 161.115 34.1453 160.985 34.0162C160.856 33.879 160.663 33.8144 160.485 33.8144L160.283 33.8386C159.331 34.0243 158.451 34.1695 157.66 34.2825C156.861 34.3955 156.102 34.4843 155.376 34.5569C154.65 34.6215 153.939 34.6699 153.253 34.6942C152.906 34.7022 152.551 34.7103 152.188 34.7103C151.825 34.7103 151.446 34.7103 151.066 34.6942C150.905 34.6942 150.832 34.6538 150.8 34.6215C150.768 34.5892 150.735 34.5408 150.735 34.3875V31.1025C150.735 30.9815 150.759 30.9492 150.776 30.9411C150.784 30.9331 150.816 30.9088 150.937 30.9008H155.973C156.893 30.9008 157.579 30.7555 158.04 30.3762C158.508 29.9726 158.685 29.2946 158.685 28.3988V22.5473C158.685 21.6756 158.54 21.0138 158.177 20.5699C157.975 20.3358 157.684 20.1825 157.329 20.0775C156.974 19.9807 156.546 19.9323 156.038 19.9323H147.378C147.192 19.9323 147.023 19.9968 146.877 20.1098C146.724 20.2228 146.611 20.4246 146.611 20.6264V22.854C146.611 23.0557 146.708 23.2414 146.845 23.3786C146.982 23.5158 147.168 23.6207 147.37 23.6126H154.214C154.311 23.6126 154.383 23.6126 154.432 23.6288C154.432 23.6691 154.448 23.7176 154.448 23.8063V27.059C154.448 27.1558 154.44 27.2285 154.432 27.2607L154.399 27.2769C154.399 27.2769 154.303 27.293 154.222 27.293H149.153C148.314 27.293 147.644 27.4706 147.176 27.8741C146.684 28.2938 146.474 28.9718 146.474 29.8354V35.6869C146.474 36.5505 146.659 37.2204 147.103 37.6643C147.563 38.1163 148.322 38.31 149.379 38.3665C149.864 38.3907 150.38 38.4068 150.913 38.4068C151.316 38.4068 151.744 38.4068 152.18 38.3826L152.164 38.3745Z" fill="#3F3B3A"/>
<path d="M175.069 49.8838V47.4544C175.069 47.2526 174.964 47.0589 174.819 46.9379C174.682 46.8087 174.496 46.728 174.311 46.728H157.023C156.829 46.728 156.716 46.6957 156.684 46.6715C156.684 46.6715 156.651 46.5989 156.651 46.4617V40.9814C156.651 40.7797 156.554 40.594 156.417 40.4568C156.272 40.3115 156.07 40.2147 155.86 40.2228H152.947C152.737 40.2228 152.535 40.3115 152.39 40.4568C152.253 40.594 152.148 40.7797 152.156 40.9814V47.866C152.156 48.7942 152.341 49.4964 152.785 49.9483C153.253 50.4084 154.02 50.5779 155.077 50.5779H174.319C174.488 50.5779 174.658 50.5214 174.803 50.4245C174.981 50.3115 175.085 50.0855 175.085 49.8838H175.069Z" fill="#3F3B3A"/>
<path d="M163.689 41.0057C163.843 41.1429 164.044 41.1913 164.238 41.1913H167.047C167.24 41.1913 167.434 41.1429 167.579 40.9976C167.725 40.8523 167.773 40.6586 167.773 40.4649V19.3753C167.773 19.1816 167.725 18.9879 167.579 18.8426C167.434 18.6974 167.24 18.6489 167.047 18.6489H164.238C164.036 18.6489 163.835 18.6974 163.689 18.8346C163.536 18.9718 163.479 19.1816 163.479 19.3753V27.4463H160.404C160.227 27.4463 160.049 27.5109 159.904 27.6239C159.751 27.7369 159.638 27.9387 159.638 28.1405V30.3681C159.638 30.5698 159.742 30.7635 159.888 30.8846C160.025 31.0137 160.211 31.0944 160.404 31.0944H163.479V40.4649C163.479 40.6586 163.536 40.8685 163.689 41.0057Z" fill="#3F3B3A"/>
<path d="M187.709 45.8564C187.709 45.8564 187.773 45.8564 187.83 45.8564H201.252C202.212 45.8564 202.89 45.7272 203.31 45.3317C203.713 44.9363 203.859 44.3148 203.859 43.4835V39.5771C203.859 38.77 203.705 38.1485 203.31 37.7531C202.89 37.3495 202.204 37.2123 201.244 37.2042H183.956C183.762 37.2042 183.584 37.2849 183.439 37.4141C183.294 37.5432 183.189 37.7288 183.189 37.9306V40.1905C183.189 40.3923 183.294 40.5941 183.455 40.707C183.6 40.82 183.77 40.8927 183.956 40.8846H199.291C199.355 40.8846 199.404 40.8846 199.436 40.8927C199.444 40.9492 199.452 41.0299 199.452 41.151V42.1437C199.452 42.2405 199.452 42.3213 199.436 42.3697C199.404 42.3697 199.371 42.3697 199.323 42.3697H185.796C184.876 42.3697 184.206 42.523 183.794 42.9346C183.407 43.3382 183.253 43.9435 183.253 44.7022V48.6731C183.253 49.4399 183.415 50.0533 183.81 50.473C184.23 50.9088 184.908 51.0702 185.828 51.0783H203.972C204.174 51.0783 204.359 50.9815 204.496 50.8443C204.634 50.707 204.73 50.5214 204.73 50.3196V48.1243C204.73 47.9145 204.642 47.7046 204.48 47.5674C204.335 47.4302 204.133 47.3576 203.931 47.3576H187.838C187.773 47.3576 187.725 47.3576 187.676 47.3576C187.676 47.3253 187.676 47.2849 187.676 47.2365V46.0339C187.676 45.9451 187.676 45.8886 187.684 45.8402L187.709 45.8564Z" fill="#3F3B3A"/>
<path d="M203.859 25.4286V18.8265C203.859 18.6328 203.81 18.4391 203.665 18.2938C203.52 18.1485 203.326 18.1001 203.132 18.1001H200.081C199.888 18.1001 199.694 18.1485 199.549 18.2938C199.404 18.4391 199.355 18.6328 199.355 18.8265V35.4044C199.355 35.6142 199.395 35.816 199.533 35.9774C199.67 36.1388 199.88 36.2034 200.081 36.2034H203.132C203.326 36.2034 203.528 36.1469 203.673 35.9936C203.81 35.8402 203.859 35.6384 203.859 35.4447V29.2865H208.233C208.427 29.2865 208.604 29.2058 208.742 29.0767C208.887 28.9476 208.992 28.7619 208.992 28.5601V26.1308C208.992 25.929 208.887 25.7272 208.726 25.6142C208.588 25.5012 208.411 25.4367 208.225 25.4367H203.851L203.859 25.4286Z" fill="#3F3B3A"/>
<path d="M184.375 22.9104C184.375 22.9104 184.48 22.8458 184.642 22.8377H194.093C194.295 22.8377 194.488 22.7893 194.642 22.6521C194.795 22.5068 194.852 22.305 194.852 22.1113V19.916C194.852 19.7142 194.795 19.5044 194.65 19.3591C194.504 19.2138 194.295 19.1573 194.093 19.1573H182.382C181.486 19.1573 180.808 19.3188 180.388 19.7385C179.977 20.1582 179.807 20.8038 179.807 21.6352V32.2808C179.807 33.0879 180.049 33.7659 180.566 34.2502C181.066 34.7264 181.736 34.9846 182.543 35.0331C183.334 35.0815 184.19 35.1138 185.11 35.1138C185.416 35.1138 185.739 35.1138 186.062 35.1057C187.345 35.0815 188.629 35.0331 189.912 34.9523C191.195 34.8716 192.43 34.7586 193.625 34.6053C194.819 34.46 195.852 34.2905 196.724 34.1049C196.918 34.0645 197.079 33.9596 197.232 33.8143C197.386 33.6771 197.483 33.4673 197.475 33.2574L197.45 33.0557L197.071 31.1751V31.159C197.015 30.9249 196.853 30.6989 196.611 30.6182C196.514 30.5859 196.409 30.5698 196.304 30.5698C196.207 30.5698 196.119 30.5859 196.022 30.6101C195.191 30.7635 194.246 30.8926 193.189 30.9975C192.132 31.1025 191.074 31.1832 190.033 31.2558C188.984 31.3285 188.023 31.3607 187.144 31.3607C186.264 31.3607 185.57 31.3365 185.086 31.2962C184.674 31.2558 184.416 31.167 184.4 31.1347L184.383 31.1105C184.351 31.0621 184.311 30.9007 184.311 30.6505V28.8749C185.804 28.8749 187.329 28.8668 188.911 28.8426C190.59 28.8184 192.172 28.7538 193.633 28.6327C193.826 28.6327 194.028 28.5278 194.133 28.3583C194.238 28.1888 194.27 27.9951 194.27 27.7691V25.6787C194.27 25.5657 194.238 25.4527 194.165 25.3559C194.093 25.2671 193.996 25.2025 193.899 25.1703C193.746 25.1138 193.592 25.0815 193.439 25.0815H193.423C192.059 25.1703 190.558 25.2268 188.919 25.2348C187.37 25.2429 185.836 25.251 184.311 25.251V23.1364C184.311 22.9911 184.343 22.9346 184.375 22.9023V22.9104Z" fill="#3F3B3A"/>
<path d="M52.2122 57.4947C50.7837 58.1243 49.9846 59.2865 49.9846 60.5537C49.9846 61.0056 50.0895 61.4738 50.2913 61.9338C51.0419 63.5964 51.8975 65.4851 51.8975 65.4851L51.9782 65.6545L52.1557 65.59C62.2526 61.837 68.8063 56.9217 72.8337 50.707C76.8611 44.4843 78.3462 36.9782 78.3543 28.0516V27.8418H78.1444C75.594 27.9871 73.0193 28.1969 70.477 28.4794L70.2994 28.5036V28.6893C70.2994 29.004 70.3075 29.3107 70.3075 29.6094C70.3075 36.5585 69.1372 41.4173 66.159 46.2841C63.4471 50.6989 59.5891 54.226 52.2284 57.5109L52.2122 57.4947Z" fill="#E60013"/>
<path d="M40.7514 50.4568C45.3761 50.4568 50.4286 48.7538 54.3269 45.364C58.2333 41.9822 60.9855 36.9056 60.9855 30.1985V29.9483L60.7433 29.9968C58.3462 30.4891 55.9976 31.0702 53.7377 31.7482L53.6005 31.7885V31.9338C53.2938 36.9459 49.912 42.1275 43.1889 43.4108C42.3575 43.5722 41.615 43.6449 40.9613 43.6449C38.887 43.6449 37.6925 42.9185 37.0145 41.724C36.7805 41.3123 36.619 40.7797 36.619 40.1663C36.619 38.8345 37.3697 37.0831 39.8717 35.251C44.3027 32.0145 52.5835 29.456 57.1033 28.3906C65.5456 26.3971 74.6497 25.3398 85.5456 25.2429C86.3204 25.2429 87.0145 25.0896 87.5876 24.7345C88.1525 24.3874 88.5722 23.8305 88.7902 23.0557C89.5811 20.1905 90.1461 18.1324 90.1461 18.1324L90.2187 17.8741H89.9524C82.0508 17.8741 69.8959 18.4471 58.0315 20.9411C55.2712 17.0105 50.4124 14 43.0597 14C39.3309 14 34.9645 14.7748 29.904 16.5827L29.6941 16.6554L29.7829 16.8571C29.7829 16.8571 30.0089 17.3575 30.3559 18.1162C30.703 18.883 31.1711 19.908 31.6473 20.9734C31.8975 21.5383 32.2284 21.958 32.64 22.2405C33.0517 22.523 33.544 22.6441 34.0928 22.6441C34.5771 22.6441 35.1098 22.5472 35.699 22.3777C38.5642 21.5303 41.1146 21.0864 43.3261 21.0864C45.9653 21.0864 48.1203 21.7159 49.8071 23.0153C41.1792 25.59 35.9895 28.5601 32.9387 31.5948C29.8636 34.678 29 37.8257 29 40.6182C29 42.4665 29.7667 44.912 31.615 46.9136C33.4633 48.9153 36.4173 50.4568 40.7514 50.4487V50.4568Z" fill="#E60013"/>
</g>
<defs>
<clipPath id="clip0_11_3929">
<rect width="180" height="51.6546" fill="white" transform="translate(29 14)"/>
</clipPath>
</defs>
</svg>
